<svg viewBox="0 0 9.5250026 9.5250027" version="1.1" id="svg5" inkscape:version="1.1.2 (0a00cf5339, 2022-02-04)" sodipodi:docname="back.svg" xmlns:inkscape="http://www.inkscape.org/namespaces/inkscape" xmlns:sodipodi="http://sodipodi.sourceforge.net/DTD/sodipodi-0.dtd" xmlns="http://www.w3.org/2000/svg" xmlns:svg="http://www.w3.org/2000/svg"> <sodipodi:namedview id="namedview7" pagecolor="#ffffff" bordercolor="#666666" borderopacity="1.0" inkscape:pageshadow="2" inkscape:pageopacity="0.0" inkscape:pagecheckerboard="0" inkscape:document-units="mm" showgrid="false" fit-margin-top="0" fit-margin-left="0" fit-margin-right="0" fit-margin-bottom="0" inkscape:zoom="0.90583672" inkscape:cx="209.75083" inkscape:cy="242.3174" inkscape:window-width="1488" inkscape:window-height="1012" inkscape:window-x="26" inkscape:window-y="23" inkscape:window-maximized="0" inkscape:current-layer="layer1" /> <defs id="defs2" /> <g inkscape:label="Layer 1" inkscape:groupmode="layer" id="layer1" transform="translate(182.27185,269.29541)"> <path d="m -173.02874,-267.66873 c 0.37189,-0.3719 0.37189,-0.97586 0,-1.34776 -0.3719,-0.37189 -0.97586,-0.37189 -1.34776,0 l -3.13285,3.13583 -3.13582,-3.13285 c -0.3719,-0.3719 -0.97586,-0.3719 -1.34776,0 -0.37189,0.3719 -0.37189,0.97586 0,1.34775 l 3.13583,3.13285 -3.13285,3.13583 c -0.3719,0.3719 -0.3719,0.97585 0,1.34775 0.3719,0.3719 0.97585,0.3719 1.34775,0 l 3.13285,-3.13583 3.13583,3.13286 c 0.37189,0.37189 0.97585,0.37189 1.34775,0 0.3719,-0.3719 0.3719,-0.97586 0,-1.34776 l -3.13583,-3.13285 z" id="path4554" style="fill:#ff0000;fill-opacity:1;stroke-width:0.0297516" /> </g></svg>