<svg class="networkLogo" width="49.998" height="50" xmlns="http://www.w3.org/2000/svg">
  <path d="m15.293 21.01 9.711-9.708 9.715 9.715 5.647-5.65L25.004 0 9.642 15.362Z" style="fill:#f3ba2f;stroke-width:.394914" transform="scale(1.00003)"/>
  <path d="m0 25 5.65-5.648L11.297 25 5.65 30.65z" style="fill:#f3ba2f;stroke-width:.394913" transform="scale(1.00003)"/>
  <path d="m15.293 28.99 9.711 9.712 9.715-9.715 5.651 5.643-.004.004L25.004 50 9.642 34.642l-.008-.008z" style="fill:#f3ba2f;stroke-width:.394914" transform="scale(1.00003)"/>
  <path d="m38.7 25.002 5.65-5.649 5.648 5.65-5.649 5.648z" style="fill:#f3ba2f;stroke-width:.394913" transform="scale(1.00003)"/>
  <path d="m30.734 24.998-5.73-5.734-4.237 4.237-.49.486-1.003 1.003-.008.008.008.012 5.73 5.726 5.73-5.734.004-.004z" style="fill:#f3ba2f;stroke-width:.394914" transform="scale(1.00003)"/>
</svg>
