<svg width="250.002" height="50" xmlns="http://www.w3.org/2000/svg">
  <g fill="#f3ba2f">
    <path d="m15.293 21.01 9.711-9.708 9.715 9.715 5.647-5.65L25.004 0 9.642 15.362ZM0 25l5.65-5.648L11.297 25 5.65 30.65Zm15.293 3.99 9.711 9.712 9.715-9.715 5.651 5.643-.004.004L25.004 50 9.642 34.642l-.008-.008ZM38.7 25.002l5.65-5.649 5.648 5.65-5.649 5.648z"/>
    <path d="m30.734 24.998-5.73-5.734-4.237 4.237-.49.486-1.003 1.003-.008.008.008.012 5.73 5.726 5.73-5.734.004-.004zm28.079-12.882h12.29q4.572 0 6.918 2.37a6.121 6.121 0 0 1 1.813 4.47v.075a6.583 6.583 0 0 1-.28 2.006 6.16 6.16 0 0 1-.755 1.58 5.833 5.833 0 0 1-1.09 1.232 7.077 7.077 0 0 1-1.339.908 8.949 8.949 0 0 1 3.622 2.37q1.319 1.5 1.319 4.146v.075a6.887 6.887 0 0 1-.7 3.183 6.208 6.208 0 0 1-2.001 2.275 9.498 9.498 0 0 1-3.14 1.362 16.863 16.863 0 0 1-4.064.455H58.813zM69.87 22.834a6.078 6.078 0 0 0 3.069-.664 2.29 2.29 0 0 0 1.13-2.14v-.075a2.342 2.342 0 0 0-.984-2.026q-.984-.699-2.84-.699h-5.75v5.604zm1.552 10.682a5.608 5.608 0 0 0 3.041-.699 2.401 2.401 0 0 0 1.098-2.18v-.075a2.492 2.492 0 0 0-1.023-2.1q-1.019-.79-3.294-.79h-6.749v5.844zm17.21-21.4h5.833V38.63h-5.833zm14.66 0h5.378l12.432 16.318V12.116h5.758V38.63h-4.964l-12.839-16.854V38.63h-5.765Zm41.228-.19h5.371l11.362 26.704h-6.09l-2.424-5.947h-11.212l-2.425 5.947h-5.947Zm6.138 15.607-3.53-8.6-3.516 8.6Zm16.902-15.417h5.379l12.424 16.318V12.116h5.757V38.63h-4.964l-12.838-16.854V38.63h-5.758zm44.554 26.98a13.794 13.794 0 0 1-5.418-1.058 13.1 13.1 0 0 1-7.16-7.235 14.035 14.035 0 0 1-1.023-5.343v-.075a13.759 13.759 0 0 1 3.866-9.68 13.123 13.123 0 0 1 4.344-2.953 14.177 14.177 0 0 1 5.604-1.078 17.57 17.57 0 0 1 3.389.304 14.083 14.083 0 0 1 2.788.833 12.045 12.045 0 0 1 2.31 1.287 15.607 15.607 0 0 1 1.975 1.667l-3.709 4.28a14.102 14.102 0 0 0-3.159-2.199 8.084 8.084 0 0 0-3.617-.79 7.337 7.337 0 0 0-5.53 2.425 8.329 8.329 0 0 0-1.595 2.634 9.032 9.032 0 0 0-.564 3.203v.075a9.166 9.166 0 0 0 .564 3.199 8.42 8.42 0 0 0 1.58 2.65 7.29 7.29 0 0 0 5.529 2.464 8.104 8.104 0 0 0 3.842-.833 14.857 14.857 0 0 0 3.124-2.275l3.712 3.752a18.928 18.928 0 0 1-2.12 1.974 12.637 12.637 0 0 1-2.405 1.497 12.463 12.463 0 0 1-2.86.944 17.025 17.025 0 0 1-3.467.331zm17.736-26.98h19.955v5.19h-14.217v5.378h12.518v5.189h-12.499v5.568h14.395v5.19h-20.14z"/>
  </g>
</svg>
