<?xml version="1.0" encoding="UTF-8" standalone="no"?>
<svg
   width="121.378"
   height="121.15011"
   viewBox="0 0 121.378 121.15011"
   fill="none"
   version="1.1"
   id="svg56"
   sodipodi:docname="bscscan.svg"
   inkscape:version="1.1.2 (0a00cf5339, 2022-02-04)"
   xmlns:inkscape="http://www.inkscape.org/namespaces/inkscape"
   xmlns:sodipodi="http://sodipodi.sourceforge.net/DTD/sodipodi-0.dtd"
   xmlns="http://www.w3.org/2000/svg"
   xmlns:svg="http://www.w3.org/2000/svg">
  <defs
     id="defs60" />
  <sodipodi:namedview
     id="namedview58"
     pagecolor="#ffffff"
     bordercolor="#666666"
     borderopacity="1.0"
     inkscape:pageshadow="2"
     inkscape:pageopacity="0.0"
     inkscape:pagecheckerboard="0"
     showgrid="false"
     fit-margin-top="0"
     fit-margin-left="0"
     fit-margin-right="0"
     fit-margin-bottom="0"
     inkscape:zoom="2.8468085"
     inkscape:cx="234.82436"
     inkscape:cy="60.945441"
     inkscape:window-width="3782"
     inkscape:window-height="1536"
     inkscape:window-x="0"
     inkscape:window-y="0"
     inkscape:window-maximized="1"
     inkscape:current-layer="svg56" />
  <path
     d="m 25.2228,57.583 c 10e-5,-0.6774 0.134,-1.3482 0.3941,-1.9737 0.2601,-0.6256 0.6411,-1.1936 1.1213,-1.6715 0.4802,-0.4779 1.0501,-0.8562 1.6769,-1.1132 0.6268,-0.257 1.2982,-0.3877 1.9757,-0.3846 l 8.568,0.028 c 1.3661,0 2.6763,0.5427 3.6423,1.5087 0.966,0.966 1.5087,2.2762 1.5087,3.6423 v 32.4001 c 0.965,-0.286 2.2,-0.5911 3.559,-0.9111 0.9415,-0.2215 1.7806,-0.7545 2.3812,-1.5127 0.6006,-0.7582 0.9276,-1.697 0.9278,-2.6643 V 44.744 c 0,-1.3662 0.5426,-2.6765 1.5086,-3.6426 0.966,-0.9662 2.2762,-1.5091 3.6424,-1.5094 h 8.594 c 1.3662,3e-4 2.6764,0.5432 3.6423,1.5094 0.966,0.9661 1.5087,2.2764 1.5087,3.6426 v 37.3 c 0,0 2.15,-0.87 4.243,-1.754 0.7777,-0.3289 1.4414,-0.8796 1.9082,-1.5833 0.4668,-0.7037 0.7161,-1.5292 0.7168,-2.3737 V 31.866 c 0,-1.3659 0.5425,-2.6759 1.5083,-3.6419 0.9658,-0.966 2.2757,-1.5088 3.6417,-1.5091 h 8.585 c 1.3652,0.0014 2.6741,0.5446 3.639,1.5105 0.965,0.9659 1.507,2.2753 1.507,3.6405 V 68.483 C 103.066,63.089 110.609,56.601 116.595,48.8 c 0.868,-1.1323 1.443,-2.462 1.673,-3.8705 0.229,-1.4085 0.107,-2.8519 -0.357,-4.2015 C 115.14,32.7562 110.735,25.4505 104.979,19.2786 99.2225,13.1067 92.241,8.20438 84.4813,4.88543 76.7216,1.56649 68.3544,-0.0960273 59.9153,0.00428347 51.4762,0.104594 43.1509,1.96552 35.4723,5.46797 27.7936,8.97042 20.9307,14.0373 15.3226,20.3443 9.7145701,26.6513 5.4848801,34.0596 2.9042301,42.0951 0.32357808,50.1305 -0.55119892,58.6163 0.33587008,67.0093 1.2229401,75.4022 3.8523201,83.5176 8.0557601,90.836 c 0.73234,1.2625 1.80977,2.2898 3.1057399,2.9612 1.2959,0.6713 2.7565,0.9589 4.2103,0.8288 1.624,-0.143 3.646,-0.345 6.05,-0.627 1.0462,-0.119 2.0122,-0.6187 2.7138,-1.4039 0.7017,-0.7852 1.0901,-1.801 1.0912,-2.8541 V 57.583"
     fill="#ffffff"
     id="path52" />
  <path
     d="m 25.0391,109.544 c 9.0492,6.583 19.7432,10.535 30.8988,11.417 11.1555,0.883 22.3379,-1.338 32.3097,-6.416 9.9719,-5.078 18.3444,-12.816 24.1914,-22.3572 5.847,-9.5413 8.941,-20.5143 8.939,-31.7047 0,-1.4 -0.065,-2.778 -0.158,-4.152 -22.163,33.055 -63.0849,48.5079 -96.1809,53.2129 z"
     fill="#f0b90b"
     id="path54" />
</svg>
