<svg id="ethnetwork" version="1.1" x="0" y="0" xml:space="preserve" width="249.999" height="65.203" xmlns="http://www.w3.org/2000/svg">
  <style type="text/css" id="style2">
    .wa0{fill:#3c3c3b}.wa1{fill:#8c8c8c}.wa3{fill:#343434}
  </style>
  <g id="g872" transform="translate(-34.577 -35.555) scale(1.34044)">
    <path class="wa0" d="M80 52.9c0 .3-.3.6-.6.6H68.1c.3 2.8 2.4 5.4 5.4 5.4 2 0 3.5-.8 4.7-2.4.1-.2.3-.3.5-.3.3 0 .6.2.6.6 0 .1 0 .2-.1.3-1.1 2-3.4 3-5.6 3-3.8 0-6.5-3.4-6.5-7.1 0-3.7 2.7-7.1 6.5-7.1s6.4 3.3 6.4 7m-1.2-.6c-.2-2.8-2.4-5.4-5.4-5.4-3 0-5.1 2.6-5.4 5.4z" id="path4" style="fill:#01b3e2;fill-opacity:1"/>
    <path class="wa0" d="M93.8 46.1c.3 0 .6.3.6.6s-.2.6-.6.6h-3v11.9c0 .3-.2.6-.6.6-.3 0-.6-.3-.6-.6v-12h-2.9c-.3 0-.6-.2-.6-.6 0-.3.2-.6.6-.6h2.9v-4.4c0-.3.2-.6.6-.6.3 0 .6.2.6.6V46h3z" id="path6" style="fill:#01b3e2;fill-opacity:1"/>
    <path class="wa0" d="M112.4 51.9v7.2c0 .3-.3.6-.6.6s-.6-.2-.6-.6v-7.2c0-2.4-1.4-4.9-4.1-4.9-3.5 0-5 3-4.8 6.2v5.9c0 .3-.2.6-.6.6-.3 0-.6-.2-.6-.6V35.3c0-.3.2-.6.6-.6.3 0 .6.3.6.6v13.4c1-1.7 2.7-2.9 4.8-2.9 3.4 0 5.3 3 5.3 6.1" id="path8" style="fill:#01b3e2;fill-opacity:1"/>
    <path class="wa0" d="M132.7 52.9c0 .3-.3.6-.6.6h-11.3c.3 2.8 2.4 5.4 5.4 5.4 2 0 3.5-.8 4.7-2.4.1-.2.3-.3.5-.3.3 0 .6.2.6.6 0 .1 0 .2-.1.3-1.1 2-3.4 3-5.6 3-3.8 0-6.5-3.4-6.5-7.1 0-3.7 2.7-7.1 6.5-7.1 3.7-.1 6.4 3.3 6.4 7m-1.2-.6c-.2-2.8-2.4-5.4-5.4-5.4-3 0-5.1 2.6-5.4 5.4z" id="path10" style="fill:#01b3e2;fill-opacity:1"/>
    <path class="wa0" d="M146.7 46.6c0 .4-.2.6-.5.6-3.3.5-4.8 3.2-4.8 6.4V59c0 .3-.2.6-.6.6-.3 0-.6-.2-.6-.6V46.7c0-.3.2-.6.6-.6.3 0 .6.2.6.6v2.5c.9-1.6 2.8-3.1 4.8-3.1.1 0 .5.2.5.5" id="path12" style="fill:#01b3e2;fill-opacity:1"/>
    <path class="wa0" d="M165.3 52.9c0 .3-.3.6-.6.6h-11.3c.3 2.8 2.4 5.4 5.4 5.4 2 0 3.5-.8 4.7-2.4.1-.2.3-.3.5-.3.3 0 .6.2.6.6 0 .1 0 .2-.1.3-1.1 2-3.4 3-5.6 3-3.8 0-6.5-3.4-6.5-7.1 0-3.7 2.7-7.1 6.5-7.1 3.6-.1 6.4 3.3 6.4 7m-1.2-.6c-.2-2.8-2.4-5.4-5.4-5.4-3 0-5.1 2.6-5.4 5.4z" id="path14" style="fill:#01b3e2;fill-opacity:1"/>
    <path class="wa0" d="M183.6 46.7v12.4c0 .3-.3.6-.6.6s-.6-.2-.6-.6v-2.4c-.9 1.9-2.6 3.2-4.7 3.2-3.4 0-5.2-2.9-5.2-6v-7.3c0-.3.2-.6.6-.6.3 0 .6.3.6.6V54c0 2.4 1.4 4.9 4.1 4.9 3.8 0 4.7-3.6 4.7-7.5v-4.6c0-.3.2-.6.6-.6.2 0 .5.2.5.5" id="path16" style="fill:#01b3e2;fill-opacity:1"/>
    <path class="wa0" d="M212.3 51.8v7.3c0 .3-.3.6-.6.6s-.6-.2-.6-.6v-7.3c0-2.4-1.4-4.8-4.1-4.8-3.4 0-4.7 3.7-4.7 6.5v5.6c0 .3-.3.6-.6.6s-.6-.2-.6-.6v-7.3c0-2.4-1.4-4.8-4.1-4.8-3.5 0-4.9 2.7-4.8 6.3v5.8c0 .3-.2.6-.6.6-.3 0-.6-.2-.6-.6V46.7c0-.3.2-.6.6-.6.3 0 .6.2.6.6v2.1c1-1.7 2.7-2.9 4.8-2.9 2.3 0 4.1 1.5 4.8 3.6.9-2.1 2.8-3.6 5.1-3.6 3.5-.1 5.4 2.8 5.4 5.9" id="path18" style="fill:#01b3e2;fill-opacity:1"/>
  </g>
  <g id="g862" transform="translate(-6.276 -8.15) scale(.81504)">
    <g id="LWPOLYLINE" style="fill:#01b3e2;fill-opacity:1">
      <path class="wa1" id="polyline22" style="fill:#01b3e2;fill-opacity:1" d="M7.7 55.4 32.2 90V69.9L7.7 55.4"/>
    </g>
    <g id="LWPOLYLINE_1_" style="fill:#53ba68;fill-opacity:1">
      <path id="polyline25" style="fill:#53ba68;fill-opacity:1" d="m7.7 50.7 24.5 14.6V39.6L7.7 50.7"/>
    </g>
    <g id="LWPOLYLINE_2_" style="fill:#feed5b;fill-opacity:1">
      <path class="wa1" id="polyline28" style="fill:#feed5b;fill-opacity:1" d="m7.7 50.7 24.5-11.1V10L7.7 50.7"/>
    </g>
    <g id="LWPOLYLINE_3_" style="fill:#6676b9;fill-opacity:1">
      <path class="wa3" id="polyline31" style="fill:#6676b9;fill-opacity:1" d="M56.8 55.4 32.2 90V69.9l24.6-14.5"/>
    </g>
    <g id="LWPOLYLINE_4_" style="fill:#a85ca5;fill-opacity:1">
      <path id="polyline34" style="fill:#a85ca5;fill-opacity:1" d="M56.8 50.7 32.2 65.3V39.6l24.6 11.1"/>
    </g>
    <g id="LWPOLYLINE_5_" style="fill:#f48067;fill-opacity:1">
      <path class="wa3" id="polyline37" style="fill:#f48067;fill-opacity:1" d="M56.8 50.7 32.2 39.6V10l24.6 40.7"/>
    </g>
  </g>
</svg>
