<svg width="20.036" height="20" fill="none" xmlns="http://www.w3.org/2000/svg">
  <path d="M4.164 9.506a.85.85 0 0 1 .853-.849l1.415.005a.85.85 0 0 1 .85.85v5.348c.16-.047.364-.097.587-.15a.708.708 0 0 0 .547-.69V7.386a.85.85 0 0 1 .85-.85h1.417a.85.85 0 0 1 .85.85v6.157s.355-.143.7-.29a.71.71 0 0 0 .434-.652V5.26a.85.85 0 0 1 .85-.85h1.418a.85.85 0 0 1 .85.85v6.044c1.229-.89 2.474-1.961 3.462-3.25a1.426 1.426 0 0 0 .217-1.332A10.01 10.01 0 1 0 1.33 14.995a1.266 1.266 0 0 0 1.208.626c.268-.024.601-.057.998-.104a.708.708 0 0 0 .628-.703z" fill="#21325b"/>
  <path d="M4.133 18.084a10.013 10.013 0 0 0 15.903-8.1c0-.23-.01-.458-.026-.685-3.658 5.457-10.413 8.008-15.876 8.784" fill="#979695"/>
</svg>
