<svg class="mmpirate" width="22.825052mm" height="21.166666mm" viewBox="0 0 22.825052 21.166666" version="1.1" id="svg5" sodipodi:docname="mmpirate.svg" inkscape:version="1.1.2 (0a00cf5339, 2022-02-04)" xmlns:inkscape="http://www.inkscape.org/namespaces/inkscape" xmlns:sodipodi="http://sodipodi.sourceforge.net/DTD/sodipodi-0.dtd" xmlns="http://www.w3.org/2000/svg" xmlns:svg="http://www.w3.org/2000/svg"> <sodipodi:namedview id="namedview7" pagecolor="#ffffff" bordercolor="#666666" borderopacity="1.0" inkscape:pageshadow="2" inkscape:pageopacity="0.0" inkscape:pagecheckerboard="0" inkscape:document-units="mm" showgrid="false" fit-margin-top="0" fit-margin-left="0" fit-margin-right="0" fit-margin-bottom="0" inkscape:zoom="1.8116735" inkscape:cx="171.3885" inkscape:cy="154.27725" inkscape:window-width="1859" inkscape:window-height="1216" inkscape:window-x="26" inkscape:window-y="23" inkscape:window-maximized="0" inkscape:current-layer="layer1" inkscape:snap-global="true" inkscape:object-paths="true" /> <defs id="defs2" /> <g inkscape:label="Layer 1" inkscape:groupmode="layer" id="layer1" transform="translate(-64.669164,-106.93493)"> <g id="g968" transform="matrix(0.33698403,0,0,0.33698403,42.876689,70.899566)"> <g id="g14755" transform="matrix(0.26458333,0,0,0.26458333,56.387705,97.674507)"> <polygon class="st0" points="193,65.8 274.1,35.5 174.6,109.4 " id="polygon14647" /> <g id="g14663"> <polygon class="st1" points="125.6,65.8 44.4,35.5 143.1,110.1 " id="polygon14649" /> <polygon class="st1" points="284.8,207.7 238.3,206.8 211.8,247.4 268.5,263 " id="polygon14651" /> <polygon class="st1" points="80.3,206.8 33.9,207.7 50.1,263 106.8,247.4 " id="polygon14653" /> <polygon class="st1" points="142.1,104.1 103.6,138.2 87.8,162.1 144.1,164.6 " id="polygon14655" /> <polygon class="st1" points="230.8,162.1 214.9,138.2 175.9,103.4 174.6,164.6 " id="polygon14657" /> <polygon class="st1" points="111.4,208.1 106.8,247.4 140.6,230.9 " id="polygon14659" /> <polygon class="st1" points="207.1,208.1 177.9,230.9 211.8,247.4 " id="polygon14661" /> </g> <g id="g14669"> <polygon class="st2" points="180.3,262.3 211.8,247.4 177.9,230.9 180.6,253 " id="polygon14665" /> <polygon class="st2" points="140.6,230.9 106.8,247.4 138.3,262.3 138.1,253 " id="polygon14667" /> </g> <polygon class="st3" points="130.5,176.1 138.8,193.5 110.6,185.2 " id="polygon14671" /> <polygon class="st3" points="208,185.2 179.7,193.5 188,176.1 " id="polygon14673" /> <g id="g14683"> <polygon class="st4" points="80.3,207.7 106.8,247.4 111.6,206.8 " id="polygon14675" /> <polygon class="st4" points="238.3,207.7 207,206.8 211.8,247.4 " id="polygon14677" /> <polygon class="st4" points="174.6,164.6 179.8,193.5 188.1,176.1 208.1,185.2 230.8,162.1 " id="polygon14679" /> <polygon class="st4" points="130.6,176.1 138.8,193.5 144.1,164.6 87.8,162.1 110.6,185.2 " id="polygon14681" /> </g> <g id="g14693"> <polygon class="st5" points="110.6,185.2 87.8,162.1 111.4,208.1 " id="polygon14685" /> <polygon class="st5" points="230.8,162.1 208.1,185.2 207.1,208.1 " id="polygon14687" /> <polygon class="st5" points="146.9,182.7 144.1,164.6 138.8,193.5 145.4,227.6 " id="polygon14689" /> <polygon class="st5" points="179.8,193.5 174.6,164.6 171.9,182.6 173.1,227.6 " id="polygon14691" /> </g> <polygon class="st6" points="173.1,227.6 177.9,230.9 207.1,208.1 208.1,185.2 179.8,193.5 " id="polygon14695" /> <polygon class="st6" points="111.4,208.1 140.6,230.9 145.4,227.6 138.8,193.5 110.6,185.2 " id="polygon14697" /> <polygon class="st7" points="211.8,247.4 180.3,262.3 180.6,253 178.1,250.8 140.4,250.8 138.1,253 138.3,262.3 106.8,247.4 117.8,256.4 140.1,271.9 178.4,271.9 200.8,256.4 " id="polygon14699" /> <polygon class="st8" points="140.6,230.9 138.1,253 140.4,250.8 178.1,250.8 180.6,253 177.9,230.9 173.1,227.6 145.4,227.6 " id="polygon14701" /> <g id="g14707"> <polygon class="st9" points="278.3,114.2 286.8,73.4 274.1,35.5 177.9,106.9 214.9,138.2 267.2,153.5 278.8,140 273.8,136.4 281.8,129.1 275.6,124.3 283.6,118.2 " id="polygon14703" /> <polygon class="st9" points="31.8,73.4 40.3,114.2 34.9,118.2 42.9,124.3 36.8,129.1 44.8,136.4 39.8,140 51.3,153.5 103.6,138.2 140.6,106.9 44.4,35.5 " id="polygon14705" /> </g> <polygon class="st6" points="284.8,207.7 267.2,153.5 214.9,138.2 230.8,162.1 207.1,208.1 238.3,207.7 " id="polygon14709" /> <polygon class="st6" points="87.8,162.1 103.6,138.2 51.3,153.5 33.9,207.7 80.3,207.7 111.4,208.1 " id="polygon14711" /> <polygon class="st6" points="177.9,106.9 193.1,65.8 125.6,65.8 140.6,106.9 144.1,164.6 145.3,182.8 145.4,227.6 173.1,227.6 173.3,182.8 174.6,164.6 " id="polygon14713" /> </g> <g id="g26379" transform="matrix(0.26458333,0,0,0.26458333,56.387706,97.674505)"> <polygon class="st0" points="174.6,109.4 193,65.8 274.1,35.5 " id="polygon26311" /> <g id="g26327"> <polygon class="st1" points="143.1,110.1 125.6,65.8 44.4,35.5 " id="polygon26313" /> <polygon class="st1" points="211.8,247.4 268.5,263 284.8,207.7 238.3,206.8 " id="polygon26315" /> <polygon class="st1" points="50.1,263 106.8,247.4 80.3,206.8 33.9,207.7 " id="polygon26317" /> <polygon class="st1" points="87.8,162.1 144.1,164.6 142.1,104.1 103.6,138.2 " id="polygon26319" /> <polygon class="st1" points="175.9,103.4 174.6,164.6 230.8,162.1 214.9,138.2 " id="polygon26321" /> <polygon class="st1" points="140.6,230.9 111.4,208.1 106.8,247.4 " id="polygon26323" /> <polygon class="st1" points="211.8,247.4 207.1,208.1 177.9,230.9 " id="polygon26325" /> </g> <g id="g26333"> <polygon class="st2" points="177.9,230.9 180.6,253 180.3,262.3 211.8,247.4 " id="polygon26329" /> <polygon class="st2" points="138.3,262.3 138.1,253 140.6,230.9 106.8,247.4 " id="polygon26331" /> </g> <polygon class="st3" points="110.6,185.2 130.5,176.1 138.8,193.5 " id="polygon26335" /> <polygon class="st3" points="188,176.1 208,185.2 179.7,193.5 " id="polygon26337" /> <g id="g26347"> <polygon class="st4" points="111.6,206.8 80.3,207.7 106.8,247.4 " id="polygon26339" /> <polygon class="st4" points="211.8,247.4 238.3,207.7 207,206.8 " id="polygon26341" /> <polygon class="st4" points="188.1,176.1 208.1,185.2 230.8,162.1 174.6,164.6 179.8,193.5 " id="polygon26343" /> <polygon class="st4" points="144.1,164.6 87.8,162.1 110.6,185.2 130.6,176.1 138.8,193.5 " id="polygon26345" /> </g> <g id="g26357"> <polygon class="st5" points="111.4,208.1 110.6,185.2 87.8,162.1 " id="polygon26349" /> <polygon class="st5" points="207.1,208.1 230.8,162.1 208.1,185.2 " id="polygon26351" /> <polygon class="st5" points="138.8,193.5 145.4,227.6 146.9,182.7 144.1,164.6 " id="polygon26353" /> <polygon class="st5" points="171.9,182.6 173.1,227.6 179.8,193.5 174.6,164.6 " id="polygon26355" /> </g> <polygon class="st6" points="207.1,208.1 208.1,185.2 179.8,193.5 173.1,227.6 177.9,230.9 " id="polygon26359" /> <polygon class="st6" points="145.4,227.6 138.8,193.5 110.6,185.2 111.4,208.1 140.6,230.9 " id="polygon26361" /> <polygon class="st7" points="180.6,253 178.1,250.8 140.4,250.8 138.1,253 138.3,262.3 106.8,247.4 117.8,256.4 140.1,271.9 178.4,271.9 200.8,256.4 211.8,247.4 180.3,262.3 " id="polygon26363" /> <polygon class="st8" points="140.4,250.8 178.1,250.8 180.6,253 177.9,230.9 173.1,227.6 145.4,227.6 140.6,230.9 138.1,253 " id="polygon26365" /> <g id="g26371"> <polygon class="st9" points="274.1,35.5 177.9,106.9 214.9,138.2 267.2,153.5 278.8,140 273.8,136.4 281.8,129.1 275.6,124.3 283.6,118.2 278.3,114.2 286.8,73.4 " id="polygon26367" /> <polygon class="st9" points="34.9,118.2 42.9,124.3 36.8,129.1 44.8,136.4 39.8,140 51.3,153.5 103.6,138.2 140.6,106.9 44.4,35.5 31.8,73.4 40.3,114.2 " id="polygon26369" /> </g> <polygon class="st6" points="214.9,138.2 230.8,162.1 207.1,208.1 238.3,207.7 284.8,207.7 267.2,153.5 " id="polygon26373" /> <polygon class="st6" points="51.3,153.5 33.9,207.7 80.3,207.7 111.4,208.1 87.8,162.1 103.6,138.2 " id="polygon26375" /> <polygon class="st6" points="125.6,65.8 140.6,106.9 144.1,164.6 145.3,182.8 145.4,227.6 173.1,227.6 173.3,182.8 174.6,164.6 177.9,106.9 193.1,65.8 " id="polygon26377" /> </g> <path id="path26007" style="fill:#233447;fill-opacity:1;stroke:none;stroke-width:20.1776;stroke-linejoin:bevel" d="m 9.1035156,103.88086 -1.3105468,0.94336 10.4062502,12.49805 a 54.542968,139.99631 88.891358 0 0 113.980471,20.45898 54.542968,139.99631 88.891358 0 0 8.02343,-0.33008 21.073869,28.351354 83.970296 0 0 -1.05468,6.73047 21.073869,28.351354 83.970296 0 0 29.51367,18.77734 21.073869,28.351354 83.970296 0 0 26.99414,-23.3125 21.073869,28.351354 83.970296 0 0 -3.05664,-8.50781 54.542968,139.99631 88.891358 0 0 44.79883,-14.26562 l 11.13867,-12.13086 a 54.542968,139.99631 88.891358 0 1 -61.88672,20.79492 21.073869,28.351354 83.970296 0 0 -20.50781,-4.66992 21.073869,28.351354 83.970296 0 0 -21.3457,9.43554 54.542968,139.99631 88.891358 0 1 -11.11329,0.45704 A 54.542968,139.99631 88.891358 0 1 9.1035156,103.88086 Z" transform="matrix(0.26458333,0,0,0.26458333,64.669164,106.93493)" /> <path style="opacity:0.855624;fill:#161616;fill-opacity:1;stroke:none;stroke-width:0;stroke-linejoin:bevel;stroke-miterlimit:4;stroke-dasharray:none;stroke-opacity:1" d="m 170.96099,162.1233 c -0.36158,-1.62027 -3.02437,-21.30543 -2.89746,-21.42003 0.0871,-0.0786 5.68808,-2.13562 12.4467,-4.5711 11.59812,-4.17941 12.30376,-4.40829 12.56196,-4.07453 0.15046,0.19449 0.57516,0.99484 0.94377,1.77854 3.16605,6.73134 1.38951,14.27765 -4.77176,20.26924 -3.89072,3.78358 -9.83728,6.81112 -15.80847,8.04847 -2.42612,0.50274 -2.35552,0.50361 -2.47474,-0.0306 z" id="path14800" transform="matrix(0.26458333,0,0,0.26458333,64.669164,106.93493)" /> <path style="opacity:0.36863;fill:#161616;fill-opacity:1;stroke:none;stroke-width:0.0260776;stroke-linejoin:bevel;stroke-miterlimit:4;stroke-dasharray:none;stroke-opacity:1" d="m 163.07436,162.96753 c -5.87496,-0.45804 -10.98713,-2.11437 -15.21383,-4.92926 -1.33423,-0.88857 -2.32124,-1.69502 -3.41733,-2.79217 -1.60324,-1.60481 -2.65762,-3.05467 -3.58973,-4.93618 -1.52608,-3.08047 -2.02872,-6.37288 -1.47467,-9.65957 0.11947,-0.70868 0.52455,-2.30408 0.69003,-2.71766 0.0976,-0.2439 0.13348,-0.27379 0.29458,-0.2453 0.24872,0.044 27.25773,3.20417 27.39638,3.2055 0.0604,5.8e-4 0.14636,0.0243 0.19097,0.0526 0.0491,0.0312 0.19267,0.95022 0.3637,2.32759 0.53,4.26859 1.55814,11.86605 2.14742,15.86842 0.48986,3.32707 0.51054,3.40787 0.87646,3.42326 0.27634,0.0116 -0.8259,0.17562 -2.05425,0.30566 -1.25219,0.13256 -5.00255,0.19119 -6.20973,0.0971 z" id="path15307" transform="matrix(0.26458333,0,0,0.26458333,64.669164,106.93493)" /> </g> </g> <style type="text/css" id="style14645"> .st0{fill:#E2761B;stroke:#E2761B;stroke-linecap:round;stroke-linejoin:round;} .st1{fill:#E4761B;stroke:#E4761B;stroke-linecap:round;stroke-linejoin:round;} .st2{fill:#D7C1B3;stroke:#D7C1B3;stroke-linecap:round;stroke-linejoin:round;} .st3{fill:#233447;stroke:#233447;stroke-linecap:round;stroke-linejoin:round;} .st4{fill:#CD6116;stroke:#CD6116;stroke-linecap:round;stroke-linejoin:round;} .st5{fill:#E4751F;stroke:#E4751F;stroke-linecap:round;stroke-linejoin:round;} .st6{fill:#F6851B;stroke:#F6851B;stroke-linecap:round;stroke-linejoin:round;} .st7{fill:#C0AD9E;stroke:#C0AD9E;stroke-linecap:round;stroke-linejoin:round;} .st8{fill:#161616;stroke:#161616;stroke-linecap:round;stroke-linejoin:round;} .st9{fill:#763D16;stroke:#763D16;stroke-linecap:round;stroke-linejoin:round;} </style> </svg>